<svg xmlns="http://www.w3.org/2000/svg" viewBox="0 0 480.2 644.5">
  <path d="M164.8 541.8c-8 1.3-15.3 2.5-22.6 3.8-9.1 1.6-18.2 3.3-27.3 4.9-.5.1-.9.2-1.4.2-5.9.7-6.7-.1-5.5-6 3.7-19.3 7.6-38.5 11.3-57.8 1.2-6.4 1.2-6.5-5.2-8.3-21.7-6.1-43.4-12.1-65.2-18.2-1.5-.4-2.9-1.2-4.3-1.8 1-1.5 1.8-3.3 3.1-4.3 11-8.3 22.1-16.5 33.2-24.7 8.1-6 16.2-11.9 24.3-17.9 1-.7 1.9-1.7 2.5-2.2-5.3-5.6-10.2-11.3-15.7-16.3-21.6-19.9-43.4-39.5-65.1-59.3-2.8-2.6-5.5-5.4-8.1-8.3-2.4-2.7-2.1-3.8 1.5-4.7 10.8-2.5 21.7-4.9 32.5-7.3 19.1-4.2 38.1-8.4 57.2-12.6 1.4-.3 2.9-.8 5.1-1.4-3.9-5-7.3-9.5-10.8-13.9l-93-113.4c-1.1-1.4-2.4-2.7-3.2-4.2-.6-1-1-2.7-.6-3.6.4-.7 2.2-1.1 3.3-1 12.5 1.1 24.9 2.1 37.4 3.6 36.6 4.4 73.1 9 109.7 13.4 1.6.2 3.2 0 5.3 0-.8-6.4-1.4-12.6-2.3-18.8L141.4 32.4c-1-6.4-2.1-12.7-3.1-19-.2-1.2.3-2.4.4-3.6 1.2.2 2.7 0 3.6.6 4.8 3.6 9.7 7.3 14.3 11.3 34.8 30.7 69.6 61.4 104.4 92.2 1.7 1.5 3.8 2.8 5.5 4.3 2.5 2.2 4.1 2 6.1-.8 7.7-11.1 15.6-22.2 23.5-33.2 1.8-2.6 3.8-5 5.9-7.4 2.2-2.6 3.7-2.3 4.4 1 1 4.8 1.8 9.7 2.5 14.5.9 6.4 1.6 12.8 2.6 19.1 1.6 10.2-1.5 20-2.3 29.9-1.5 18.5-2.3 37.1-3.4 55.6 0 .2.1.4.3.8.4 0 .8.1 1.2.1 23.7-2 44.8 5.3 64.7 17.5 5.4 3.3 10.9 6.3 16.6 8.8 8.4 3.7 15.7 8.8 22.2 15.2 17.7 17.4 33.2 36.5 44.1 58.9 6.4 13.1 8.4 27.4 10.2 41.7 2 15.3 4.1 30.6 6.5 45.8 1.1 7.1.9 13.9-.7 20.8-2.1 9-3.8 18.1-5.1 27.2-.4 3.1.9 6.6 1.7 9.8.2 1.1 1 2.1 1.5 3.1 8.4 17.5 3.3 36.7-12.9 47.7-2.8 1.9-6 3.2-9.2 4.1-5.4 1.5-8.8 5-11.5 9.6-9 15.7-21 28.9-34.3 41-17.9 16.3-39.2 26.1-62.5 31.8-10.5 2.5-21.4 3.8-32.6 5.7v3.3c-.1 11.9-.1 23.9-.2 35.8-.1 7.3-1 8.3-8.3 8.7-27.8 1.8-52.9-5.9-75.6-21.8-13.3-9.3-24.1-21-34-33.7-3.3-4.3-3.5-4.1-8.4-2.1-2.5 1-4.9 2.2-7.5 3-5.1 1.8-7.1.5-7.2-4.9-.1-6.5.1-13.1.1-19.6-.1-4.2-.1-8.5-.1-13.4zm133.3-373.3c-1.1-.1-1.8-.2-2.5-.2-18.9-.8-37 2.9-54.4 10-22.9 9.3-41.5 23.6-53.2 46-9.5 18-16.1 37.1-20.6 56.9-6.8 29.8-7.7 60.3-9 90.6-1.4 34.8.9 69.4 5.6 103.9 3.1 22.8 6.3 45.6 14 67.5 6.1 17.5 14.4 33.5 27.2 46.9 24.2 25.2 53.3 39.5 88.9 38.7 4.6-.1 4.9-.2 4.6-4.7-.9-14.3-1.8-28.7-3.2-43-.4-3.9-1.4-8.5-3.9-11.3-5.9-6.9-9.8-14.5-11.5-23.3-1-5.2-3.6-9-8.1-11.6-8.5-5-15.2-12.1-20.7-20.2-1.5-2.3-2.8-2.3-5.1-1.5-10 3.6-20 7.1-30.1 10.6-1.9.7-3.7 1.4-5.7 1.8-1 .2-2.1-.3-3.1-.5.5-1 .8-2.1 1.6-2.8 1.1-1 2.5-1.8 3.8-2.5 11-5.7 22.5-10.2 34.6-12.2 14-2.3 28.3-3.2 42.5-4.5 2.5-.2 3.8-.8 3.8-3.6.1-5.8.4-11.7.9-17.5.4-4.8-1-8.6-4.3-12.1-5-5.2-8.9-11.2-9.3-18.4-.9-14.8-1.2-29.6-1.6-44.5 0-.9.5-1.8.8-2.7.3 0 .6 0 .9.1.3 2 .8 4 .8 6 .2 4.6.2 9.1.3 13.7.2 12.8 1.9 25.2 8.3 36.5.9 1.6 1.9 3 2.9 4.5.3-.1.6-.2 1-.3 2.1-61 2.8-122.1 2.6-182.5-7.3 1.2-14.2 2.8-21.2 3.3-23.3 1.6-46.5.9-69.8-.9-7.7-.6-15.3-1.9-22.8-3.4-4.1-.8-6.3-4.3-6.1-7.9.2-3.8 3.2-7.5 7-8.2 2.5-.5 5.1-.7 7.7-.7 18.9 0 37.9-.1 56.8 0 13.3.1 26.4-1.2 39.2-4.6 11.3-3 10.9-.6 10.4-14.1-.2-5.5-1-6.4-6.3-5.2-16.7 4-33.5 5.1-50.5 3.6-4.3-.4-8.7-.8-13-1.2v-1c1.2-.2 2.5-.6 3.7-.6 6.2-.2 12.4-.1 18.6-.5 10.8-.7 21.7-1.4 32.5-2.5 4.3-.4 8.4-1.8 12.6-3.1 2.8-.9 3.6-3.5 2.7-7-.7-2.9-2.8-1.9-4.5-1.7-3.7.5-7.4 1.4-11.1 1.8-7.2.7-14.4 1.3-21.6 1.8-1.5.1-3-.9-5-1.5 14.7-2.4 28.5-4.7 42.4-6.9-.5-18.2-.5-35.6-.5-53.3zM26.3 325.7c32.2 28.2 64.5 56.4 96.7 84.5 0 .5-.1 1.1-.1 1.6-21.3 13.5-42.7 27-64.6 40.9 2.4.8 4.1 1.4 5.7 1.9 19.7 6.4 39.4 12.7 59 19.1 5.6 1.8 5.9 2.3 4.6 8.2-3.6 15.8-7.3 31.6-11 47.5-1 4.4-2 8.8-3.2 14.4 18.9-2.6 36.7-5.1 55.1-7.6-.8-3.8-1.5-6.8-2.1-9.9-1.6-8.2-3.3-16.5-4.8-24.7-.5-2.6-1.5-4.7-4.1-5.6-1.7-.7-3.5-1.2-5.3-1.9-17.2-7.3-28.2-23.5-23.9-43 2.8-12.6 11.1-20.1 23.8-23.6v-5.4c-.2-32.3.3-64.5 2.6-96.8 2-27.9 6.9-55.2 17.5-81.2 5.9-14.5 12.1-29 22.3-41.1 14.3-17 33.2-27 53.9-34 14.7-5 29.9-6.2 45.3-6.9 4.7-.2 4.7-.2 4.7-5 0-5.4-.1-10.8.1-16.1.3-13.2.7-26.4 1.1-39.6 0-2-.2-4-.4-5.9-.3-.1-.6-.2-1-.3-10.2 12-20.3 24-30.9 36.5-39.2-36.2-77.9-72-116.5-107.8-.4.3-.8.5-1.2.8 6.5 54.7 13 109.4 19.7 165.3-48.8-7-96.6-13.5-144.3-20.1-.2.4-.5.8-.7 1.2 34 45 68 89.9 101.9 134.9-.2.5-.4 1-.7 1.5-32.6 6.5-65.8 11-99.2 18.2zm279.8 250.7c.5.1.7.3.9.2 1.9-.2 3.7-.4 5.6-.6 46.1-4.4 83.2-25 110.6-62.4 12.1-16.5 20.4-34.9 21.4-55.5 1-18.5 1.1-37.2.4-55.7-.7-18.2-4.4-36.1-12.1-52.7-24.5-52.5-66.4-80.7-123.7-86.8-3.2-.3-4.2.6-4.3 3.8-.9 31.9-2 63.8-3 95.7-.4 11.7-1.6 23.4-1.1 35 .5 12.8 2.3 25.6 3.9 38.3.3 2.3 2 4.8 3.7 6.5 6.4 6.5 6.9 12.3 1.5 19.6-1.4 1.8-3.1 4-3.1 6.1-.3 10.8-.1 21.7-.1 32.8 2.6.2 5.6.4 8.4.7 10.4 1.2 20 4.6 28.4 11 2.4 1.8 3.6 4.3 2.8 7.4-.9 3.1-3.6 3.4-6.2 3.5l-30.2.6c-1.2 0-2.4.1-3.7.2-.1 17.9-.1 35.1-.1 52.3zm-64.5-293.2c17.2-.4 31.5.2 45.5-3.3 10.2-2.6 10.2-2.7 10.3-13.2 0-4.6-.9-5.2-5.4-4.1-13.9 3.5-27.8 6.4-42.2 5.7-12-.6-24-1.6-36.1-2.2-8.1-.4-16.1-.2-24.2-.2-3.9 0-7.4 1-9.8 4.5-2.1 3-1.7 5.3 1.7 6.7 2.3 1 4.9 1.8 7.4 2 18.7 1.6 37.2 2.9 52.8 4.1zm-89 149.7c-1.4.1-1.9.1-2.3.2-9.3 3.1-16 12-16.3 21.9-.1 2.9 0 5.8.1 8.8.5 12.6 7.6 20 19.9 24.8 1.6.6 3.6.4 5.4.6-2.4-19.2-4.6-37.7-6.8-56.3zm141.3 74.2c-6.4.4-12 .6-17.6 1.1-4.5.4-9.1.7-13.6 1.6-5.5 1-6.2 2.8-2.4 6.7 5.8 6 12.1 11.6 18.1 17.5 1.9 1.8 3.8 3.9 4.9 6.2 2.9 6 5.3 12.2 8 18.2.5 1.1 1.4 1.9 2.6 3.6v-54.9zm149-15.9c12.4-2.3 23-13.9 24.7-26.4 1.3-9-5.7-21.5-15.2-26.2-2.2 17.7-3.4 35.3-9.5 52.6zm-101.5 27.5c-3.5-7.3-24.4-14.4-35.3-12.4v12.4h35.3zm-168.7 28.5c-1.7 9.8-2.2 18.6-1.4 28.1 4.2-1.7 7.7-3.2 10.9-4.5-3.2-7.9-6.2-15.3-9.5-23.6zm133.6-89.4h1.2c3.1-5.3 2.5-12-2-14.6.3 5.2.5 9.9.8 14.6z"/>
  <path d="M172.8 344.6c8.1-1.5 15.9-3.3 23.7-4.4 22-3.3 44.2-4.2 66.4-4.6 5.4-.1 10.8-.3 16.1-.7 4.3-.3 5-1.2 3.8-5.3-3-10.5-8.2-19.6-16.9-26.4-3.9-3-8.1-5.5-12.1-8.3-.6-.4-1.2-1-2-1.7 2.4-2 4.7-1.7 7.1-.8 9.7 3.5 17.1 9.8 22.4 18.7 9.5 15.8 9 32.6 5.4 49.9-4.3 20.1-16.9 33.4-35.3 40.4-21.4 8.1-42.8 6-60.4-9.4-17.8-15.7-27.3-35.8-23.4-60.3 1.4-9.1 5.8-17.2 11.4-24.6.9-1.2 2-2.4 3.2-3.2 1.1-.7 2.5-.8 3.8-1.1-.1 1.4.2 3-.4 4.1-1 2.1-2.5 3.9-4 5.8-7.1 9.1-8.7 19.7-9.1 30.7-.1.2.1.7.3 1.2zm87-3.9v.5c-6.8 0-13.6-.2-20.3.1-5 .2-7.5 2.9-6.6 7.8 1 5.2-1.7 7.6-5.4 9.8-3.6 2.2-4.6 2-6.8-1.5-2.1-3.3-3.7-7.1-6.1-10.2-1.1-1.5-3.7-3.4-5.2-3.1-11 2.1-21.9 4.6-32.8 7-2.1.5-3 1.9-2.3 3.9 1.8 5.4 3.3 11 5.6 16.1 6.1 13.7 17 21.6 31.6 24.5 10.7 2.1 21.4 1.8 32.1.9 5.9-.5 11-2.9 15.8-6.1 15.6-10.4 23.5-25.1 25-43.6.3-3.8-.5-4.9-4.4-5.2-6.6-.3-13.4-.5-20.2-.9zM182.4 416.9c11.8 10.7 26.2 11.5 40.6 12.3 15.2.9 27.6-6.6 40.5-14.2-.2 1.2-.2 1.6-.4 1.7-11.8 9.6-24.1 17.7-40.4 16.4-6.3-.5-12.6-.8-18.8-1.5-8.9-1-15.3-6.5-21.3-12.4-.2-.2-.3-.6-.5-.9-.1-.2 0-.3.3-1.4zM199.2 506.1c-1.3 3.7-2.3 7.5-3.9 11.1-3.6 8-1.7 14.4 5 19.8 2.6 2.1 4.8 4.6 6.9 7.3-5.7-2.8-11.5-5.6-15.2-11-1.3-1.9-1.6-4.6-1.6-7 0-7.9 4-14.3 7.8-20.6.4.1.7.3 1 .4zM357.7 327.2c15.7.6 27.8 1.8 38.1 8.8 20.8 14.1 28.6 33.4 25.6 58.6-3.8 32.7-38.1 53-67.9 49-8.5-1.1-16.4-3.7-23.7-8.1-13.1-7.7-21.6-18.3-23.9-33.9-3.3-22 1.1-41.5 16.7-57.6 10.4-10.7 23.2-17.1 35.1-16.8zm5.3 110.4c13 1.4 24.6-3.2 35.3-10.9 8.3-6.1 13.8-14.1 15.4-24.2 1.1-7.2 1.5-14.7 1.2-22-.8-21.6-13.9-39.4-34-45.4-13.5-4-27.3-5.8-40.3 2.3-14.1 8.7-25.4 19.7-27.7 37.1-1 7.9-1.9 15.8-2.2 23.7-.5 12.1 5 21.3 14.5 28.4 11.1 8.1 23.5 12.1 37.8 11zM345.1 301.8c15.7 1.5 30.8 5.4 45.2 11.8 1.7.7 3.2 1.9 4.6 3.1.5.4.8 1.6.6 2.2-.2.5-1.3 1.1-1.9 1-2.9-.4-5.8-.9-8.6-1.7-8.5-2.3-17-5.3-25.6-7-6.9-1.3-14.2-1.1-21.3-1.7-1.7-.1-3.7.3-3.6-2.5 0-2.4.7-4.2 3.3-4.6 2.4-.2 4.8-.4 7.3-.6z"/>
  <path d="M368.8 383.2c3.6 0 4.9 1.5 3.4 4.7-1.1 2.4-3.1 4.5-4.6 6.7-2.1-1.7-4.5-3.2-6.2-5.3-2.9-3.8-2.2-5 2.5-5.5 1.7-.2 3.3-.4 4.9-.6z"/>
</svg>
